HIERARCHY
ROOT Hips
{
	OFFSET 0.000000 0.000000 0.000000
	CHANNELS 6 Xposition Yposition Zposition Xrotation Yrotation Zrotation
	JOINT LeftUpLeg_virtual
	{
		OFFSET 0.000000 0.000000 0.000000
		CHANNELS 3 Xrotation Yrotation Zrotation
		JOINT LeftUpLeg
		{
			OFFSET 10.205400 -3.823500 0.155100
			CHANNELS 3 Xrotation Yrotation Zrotation
			JOINT LeftLeg
			{
				OFFSET 0.708757 -12.982077 0.567790
				CHANNELS 3 Xrotation Yrotation Zrotation
				JOINT LeftFoot
				{
					OFFSET -0.708756 -10.717838 -2.184338
					CHANNELS 3 Xrotation Yrotation Zrotation
					JOINT LeftToeBase
					{
						OFFSET 0.108149 -7.191104 7.560241
						CHANNELS 3 Xrotation Yrotation Zrotation
						JOINT LeftToe_End
						{
							OFFSET 0.070230 0.081724 4.490308
							CHANNELS 3 Xrotation Yrotation Zrotation
							End Site
							{
								OFFSET 0 0 0
							}
						}
					}
				}
			}
		}
	}
	JOINT RightUpLeg_virtual
	{
		OFFSET 0.000000 0.000000 0.000000
		CHANNELS 3 Xrotation Yrotation Zrotation
		JOINT RightUpLeg
		{
			OFFSET -10.205400 -3.823500 0.005500
			CHANNELS 3 Xrotation Yrotation Zrotation
			JOINT RightLeg
			{
				OFFSET -0.708756 -12.982134 0.610632
				CHANNELS 3 Xrotation Yrotation Zrotation
				JOINT RightFoot
				{
					OFFSET 0.708754 -10.717769 -1.945823
					CHANNELS 3 Xrotation Yrotation Zrotation
					JOINT RightToeBase
					{
						OFFSET -0.108140 -7.191069 7.372968
						CHANNELS 3 Xrotation Yrotation Zrotation
						JOINT RightToe_End
						{
							OFFSET -0.070227 0.081735 4.479403
							CHANNELS 3 Xrotation Yrotation Zrotation
							End Site
							{
								OFFSET 0 0 0
							}
						}
					}
				}
			}
		}
	}
	JOINT Spine_virtual
	{
		OFFSET 0.000000 0.000000 0.000000
		CHANNELS 3 Xrotation Yrotation Zrotation
		JOINT Spine
		{
			OFFSET 0.000000 6.876099 0.125700
			CHANNELS 3 Xrotation Yrotation Zrotation
			JOINT Spine1
			{
				OFFSET 0.000000 5.730043 0.104720
				CHANNELS 3 Xrotation Yrotation Zrotation
				JOINT Spine1_split
				{
					OFFSET 0.000000 5.730043 0.104720
					CHANNELS 3 Xrotation Yrotation Zrotation
					JOINT Spine2
					{
						OFFSET 0.000000 5.730043 0.104720
						CHANNELS 3 Xrotation Yrotation Zrotation
						JOINT Neck_virtual
						{
							OFFSET 0.000000 0.000000 0.000000
							CHANNELS 3 Xrotation Yrotation Zrotation
							JOINT Neck
							{
								OFFSET 0.000000 10.314075 0.188496
								CHANNELS 3 Xrotation Yrotation Zrotation
								JOINT Head
								{
									OFFSET 0.000000 7.643700 -2.377400
									CHANNELS 3 Xrotation Yrotation Zrotation
									JOINT HeadTop_End
									{
										OFFSET 0.000000 43.788605 -13.619600
										CHANNELS 3 Xrotation Yrotation Zrotation
										End Site
										{
											OFFSET 0 0 0
										}
									}
								}
							}
						}
						JOINT LeftShoulder_virtual
						{
							OFFSET 0.000000 0.000000 0.000000
							CHANNELS 3 Xrotation Yrotation Zrotation
							JOINT LeftShoulder
							{
								OFFSET 2.196100 4.412489 0.087492
								CHANNELS 3 Xrotation Yrotation Zrotation
								JOINT LeftShoulder_split
								{
									OFFSET 2.196100 4.412489 0.087492
									CHANNELS 3 Xrotation Yrotation Zrotation
									JOINT LeftArm
									{
										OFFSET 8.771219 -2.981674 -0.026999
										CHANNELS 3 Xrotation Yrotation Zrotation
										JOINT LeftForeArm
										{
											OFFSET 8.512804 0.000000 -0.000000
											CHANNELS 3 Xrotation Yrotation Zrotation
											JOINT LeftHand
											{
												OFFSET 18.484802 0.000000 -0.000000
												CHANNELS 3 Xrotation Yrotation Zrotation
												End Site
												{
													OFFSET 0 0 0
												}
											}
										}
									}
								}
							}
						}
						JOINT RightShoulder_virtual
						{
							OFFSET 0.000000 0.000000 0.000000
							CHANNELS 3 Xrotation Yrotation Zrotation
							JOINT RightShoulder
							{
								OFFSET -2.196100 4.412496 0.070690
								CHANNELS 3 Xrotation Yrotation Zrotation
								JOINT RightShoulder_split
								{
									OFFSET -2.196100 4.412496 0.070690
									CHANNELS 3 Xrotation Yrotation Zrotation
									JOINT RightArm
									{
										OFFSET -8.771282 -2.981682 -0.094208
										CHANNELS 3 Xrotation Yrotation Zrotation
										JOINT RightForeArm
										{
											OFFSET -8.494598 0.000000 0.000000
											CHANNELS 3 Xrotation Yrotation Zrotation
											JOINT RightHand
											{
												OFFSET -18.483803 0.000000 0.000001
												CHANNELS 3 Xrotation Yrotation Zrotation
												End Site
												{
													OFFSET 0 0 0
												}
											}
										}
									}
								}
							}
						}
					}
				}
			}
		}
	}
}
MOTION
Frames: 4
Frame Time: 0.03333333
1.080287 30.286331 0.473076 0.000000 0.000000 0.000000 5.121007 -3.293399 -1.138921 -38.165622 6.389879 20.078473 66.859335 7.657126 -1.204377 -5.736349 8.142159 -13.806504 -18.591287 0.465797 -4.984775 0.000000 0.000000 0.000000 4.299197 -3.561718 -0.991464 -26.194001 -9.155008 3.687283 37.831687 -4.869069 -0.852783 -27.224074 -4.836264 -2.145186 7.200965 -1.147544 -0.955193 0.000000 0.000000 0.000000 5.410956 -4.938456 -0.740039 9.335133 3.205638 6.472937 6.576679 1.263567 0.906780 1.090448 -0.496121 0.152894 0.000000 0.000000 0.000000 7.180119 1.184736 0.864458 1.751675 -1.162972 -1.051938 -1.687188 -3.517309 -0.949753 0.000000 0.000000 0.000000 7.279871 1.206714 0.798613 2.397665 -8.193532 -12.926118 -1.016904 -1.990631 -1.223169 -23.745711 0.495036 -67.704086 -1.118447 -30.809153 -1.151930 0.000000 0.000000 0.000000 7.290782 1.107766 0.834412 3.795864 17.585437 6.549997 0.874645 3.226520 -2.174354 -12.037812 2.964229 67.303858 -0.299621 21.962651 0.231351 0.000000 0.000000 0.000000 
0.941962 30.360281 0.694172 0.000000 0.000000 0.000000 5.087472 -3.597401 -1.049015 -39.482195 6.763255 19.585470 64.988608 7.129485 -0.471076 -3.866949 6.799105 -15.355218 -18.669432 0.445634 -4.319077 0.000000 0.000000 0.000000 4.633044 -3.826869 -0.832519 -25.645781 -8.541695 3.886214 39.223331 -4.759335 -0.857745 -27.707526 -4.755620 -1.746672 7.058138 -1.145981 -1.151780 0.000000 0.000000 0.000000 5.690293 -4.604216 -0.522426 9.161688 3.261876 6.598075 6.517637 1.301595 0.913166 0.851802 -0.376449 0.234705 0.000000 0.000000 0.000000 7.166429 1.209765 0.861646 1.951242 -1.228295 -1.178605 -1.642903 -3.792092 -0.869015 0.000000 0.000000 0.000000 7.247303 1.240897 0.786811 2.420951 -8.234650 -13.187123 -0.869666 -1.778806 -1.184598 -23.934542 0.494742 -68.123385 -0.994173 -31.299752 -1.082308 0.000000 0.000000 0.000000 7.276573 1.145941 0.837340 3.728086 17.745969 6.843858 0.654344 3.129910 -2.213150 -11.732737 2.440157 66.940608 -0.255710 21.479739 0.294879 0.000000 0.000000 0.000000 
0.756799 30.538471 1.003933 0.000000 0.000000 0.000000 4.996192 -3.754456 -0.415195 -39.962248 7.938533 17.457642 60.438855 6.771765 0.153244 -3.665153 5.124215 -15.088711 -19.149460 0.103231 -2.402014 0.000000 0.000000 0.000000 4.838450 -4.011718 -0.194436 -24.713120 -7.250809 3.740559 40.549768 -4.838179 -0.977477 -28.198262 -4.449073 -1.371246 6.616038 -1.127172 -1.368020 0.000000 0.000000 0.000000 5.868880 -4.162215 0.141779 9.064915 3.353830 6.555761 6.378026 1.437820 0.868893 0.634131 -0.165968 0.265073 0.000000 0.000000 0.000000 7.046646 1.325179 0.823517 2.175255 -1.257221 -1.595732 -1.541769 -4.156482 -1.013709 0.000000 0.000000 0.000000 7.073142 1.353758 0.761702 2.402247 -8.170057 -13.470411 -0.791734 -1.313588 -1.138896 -23.614749 0.366718 -68.585987 -0.723074 -31.934707 -0.915590 0.000000 0.000000 0.000000 7.138737 1.257798 0.803119 3.644729 17.671820 7.163805 0.543787 3.076172 -2.342268 -11.182959 1.077504 66.348949 -0.186058 21.365404 0.393504 0.000000 0.000000 0.000000 
0.561927 30.766104 1.431940 0.000000 0.000000 0.000000 4.983440 -3.721185 0.679826 -40.186265 9.408558 14.443302 54.691193 6.756185 0.462848 -4.137594 3.630015 -13.533016 -15.903780 -0.045746 -1.562291 0.000000 0.000000 0.000000 5.020454 -4.190593 0.846499 -23.578264 -5.584011 3.112607 41.108477 -5.019843 -1.219724 -28.688546 -3.923506 -1.017243 6.200396 -1.043512 -1.500082 0.000000 0.000000 0.000000 5.916580 -3.696671 1.124689 9.087189 3.433942 6.309356 6.181306 1.618344 0.809814 0.449398 -0.088516 0.231722 0.000000 0.000000 0.000000 6.844770 1.489735 0.780442 2.365870 -1.219774 -2.158664 -1.359672 -4.522930 -1.374949 0.000000 0.000000 0.000000 6.804536 1.497846 0.744185 2.355369 -7.981270 -13.721036 -0.776472 -0.630690 -1.054106 -22.772231 -0.004601 -68.985628 -0.416177 -32.423782 -0.740335 0.000000 0.000000 0.000000 6.889898 1.399281 0.761204 3.575796 17.319481 7.475337 0.449151 3.006897 -2.340939 -10.468149 -0.798062 65.708954 -0.070962 21.629536 0.483919 0.000000 0.000000 0.000000 
